HIERARCHY
ROOT Hips
{
	OFFSET 0.000000 83.214638 0.000000
	CHANNELS 6 Xposition Yposition Zposition Xrotation Yrotation Zrotation
	JOINT Pelvis
	{
		OFFSET 0.000000 0.000000 0.000000
		CHANNELS 3 Xrotation Yrotation Zrotation
		JOINT LeftUpLeg
		{
			OFFSET 8.479700 -4.795502 -0.379100
			CHANNELS 3 Xrotation Yrotation Zrotation
			JOINT LeftLeg
			{
				OFFSET 0.024144 -32.555107 0.112900
				CHANNELS 3 Xrotation Yrotation Zrotation
				JOINT LeftFoot
				{
					OFFSET -0.024144 -32.638630 -3.012600
					CHANNELS 3 Xrotation Yrotation Zrotation
					JOINT LeftToeBase
					{
						OFFSET 0.970200 -13.225400 11.864200
						CHANNELS 3 Xrotation Yrotation Zrotation
						End Site
						{
							OFFSET 0.000000 12.319262 0.000000
						}
					}
					JOINT LFootTongue
					{
						OFFSET 1.142400 -1.059800 6.665200
						CHANNELS 3 Xrotation Yrotation Zrotation
						End Site
						{
							OFFSET 0.000000 12.319262 0.000000
						}
					}
				}
				JOINT LeftPantLeg
				{
					OFFSET 0.918482 -16.533964 -2.284700
					CHANNELS 3 Xrotation Yrotation Zrotation
					End Site
					{
						OFFSET 0.350399 24.744368 0.000000
					}
				}
			}
		}
		JOINT RightUpLeg
		{
			OFFSET -8.479700 -4.795502 -0.379100
			CHANNELS 3 Xrotation Yrotation Zrotation
			JOINT RightLeg
			{
				OFFSET -0.023144 -32.555092 0.112900
				CHANNELS 3 Xrotation Yrotation Zrotation
				JOINT RightFoot
				{
					OFFSET 0.023144 -32.638641 -3.012700
					CHANNELS 3 Xrotation Yrotation Zrotation
					JOINT RightToeBase
					{
						OFFSET -0.970200 -13.225400 11.864200
						CHANNELS 3 Xrotation Yrotation Zrotation
						End Site
						{
							OFFSET 0.000000 12.319244 0.000000
						}
					}
					JOINT RFootTongue
					{
						OFFSET -1.142200 -1.059800 6.665200
						CHANNELS 3 Xrotation Yrotation Zrotation
						End Site
						{
							OFFSET 0.000000 12.319243 0.000000
						}
					}
				}
				JOINT RightPantLeg
				{
					OFFSET -0.919482 -16.533978 -2.284800
					CHANNELS 3 Xrotation Yrotation Zrotation
					End Site
					{
						OFFSET -0.350400 24.744419 0.000000
					}
				}
			}
		}
	}
	JOINT Spine
	{
		OFFSET 0.000000 7.722000 1.166200
		CHANNELS 3 Xrotation Yrotation Zrotation
		JOINT Spine1
		{
			OFFSET 0.000000 12.024101 0.248800
			CHANNELS 3 Xrotation Yrotation Zrotation
			JOINT Spine2
			{
				OFFSET 0.000000 11.502998 -0.491200
				CHANNELS 3 Xrotation Yrotation Zrotation
				JOINT Neck
				{
					OFFSET 0.000000 18.430702 -3.123100
					CHANNELS 3 Xrotation Yrotation Zrotation
					JOINT Head
					{
						OFFSET 0.000000 9.051102 1.034000
						CHANNELS 3 Xrotation Yrotation Zrotation
						JOINT HairB
						{
							OFFSET 0.208400 24.786102 24.822300
							CHANNELS 3 Xrotation Yrotation Zrotation
							End Site
							{
								OFFSET 0.000000 32.263779 0.000000
							}
						}
						JOINT HairA
						{
							OFFSET -7.081100 24.428299 23.196600
							CHANNELS 3 Xrotation Yrotation Zrotation
							End Site
							{
								OFFSET 0.000000 32.263779 0.000000
							}
						}
						JOINT Hat
						{
							OFFSET 16.728800 15.048294 -15.439601
							CHANNELS 3 Xrotation Yrotation Zrotation
							End Site
							{
								OFFSET 0.000000 32.263779 0.000000
							}
						}
					}
				}
				JOINT LeftShoulder
				{
					OFFSET 6.197800 13.665199 -4.064700
					CHANNELS 3 Xrotation Yrotation Zrotation
					JOINT LeftArm
					{
						OFFSET 7.778100 -0.187103 -1.709300
						CHANNELS 3 Xrotation Yrotation Zrotation
						JOINT LeftForeArm
						{
							OFFSET 22.049376 0.000000 0.000000
							CHANNELS 3 Xrotation Yrotation Zrotation
							JOINT LeftHand
							{
								OFFSET 23.009392 0.000000 0.000000
								CHANNELS 3 Xrotation Yrotation Zrotation
								JOINT LeftHandThumb1
								{
									OFFSET 3.507191 -2.063065 3.133727
									CHANNELS 3 Xrotation Yrotation Zrotation
									JOINT LeftHandThumb2
									{
										OFFSET 3.101337 -1.790558 1.790558
										CHANNELS 3 Xrotation Yrotation Zrotation
										JOINT LeftHandThumb3
										{
											OFFSET 3.058640 -1.765907 1.765906
											CHANNELS 3 Xrotation Yrotation Zrotation
											End Site
											{
												OFFSET -0.415260 3.926476 -0.049563
											}
										}
									}
								}
								JOINT LeftHandIndex1
								{
									OFFSET 11.334419 -0.901459 3.706815
									CHANNELS 3 Xrotation Yrotation Zrotation
									JOINT LeftHandIndex2
									{
										OFFSET 3.283112 0.000000 0.000000
										CHANNELS 3 Xrotation Yrotation Zrotation
										JOINT LeftHandIndex3
										{
											OFFSET 3.323853 0.000000 0.000000
											CHANNELS 3 Xrotation Yrotation Zrotation
											End Site
											{
												OFFSET -1.135597 3.097809 0.402452
											}
										}
									}
								}
								JOINT LeftHandMiddle1
								{
									OFFSET 11.335861 0.000000 0.000000
									CHANNELS 3 Xrotation Yrotation Zrotation
									JOINT LeftHandMiddle2
									{
										OFFSET 3.410492 0.000000 0.000000
										CHANNELS 3 Xrotation Yrotation Zrotation
										JOINT LeftHandMiddle3
										{
											OFFSET 3.312172 0.000000 0.000000
											CHANNELS 3 Xrotation Yrotation Zrotation
											End Site
											{
												OFFSET -1.150200 3.080154 0.400270
											}
										}
									}
								}
								JOINT LeftHandRing1
								{
									OFFSET 11.514786 -0.013176 -3.003090
									CHANNELS 3 Xrotation Yrotation Zrotation
									JOINT LeftHandRing2
									{
										OFFSET 3.053307 0.000000 0.000000
										CHANNELS 3 Xrotation Yrotation Zrotation
										JOINT LeftHandRing3
										{
											OFFSET 3.295807 0.000000 0.000000
											CHANNELS 3 Xrotation Yrotation Zrotation
											End Site
											{
												OFFSET -1.281006 3.013344 0.375733
											}
										}
									}
								}
								JOINT LeftHandPinky1
								{
									OFFSET 10.518692 -0.960396 -5.730441
									CHANNELS 3 Xrotation Yrotation Zrotation
									JOINT LeftHandPinky2
									{
										OFFSET 2.861649 0.000000 0.000000
										CHANNELS 3 Xrotation Yrotation Zrotation
										JOINT LeftHandPinky3
										{
											OFFSET 2.863380 0.000000 0.000000
											CHANNELS 3 Xrotation Yrotation Zrotation
											End Site
											{
												OFFSET -0.843597 2.711159 0.369971
											}
										}
									}
								}
							}
							JOINT LSleeve
							{
								OFFSET 6.676277 -0.344902 -1.011730
								CHANNELS 3 Xrotation Yrotation Zrotation
								End Site
								{
									OFFSET 0.000000 14.885353 0.000000
								}
							}
						}
					}
				}
				JOINT RightShoulder
				{
					OFFSET -6.197800 13.665199 -4.064700
					CHANNELS 3 Xrotation Yrotation Zrotation
					JOINT RightArm
					{
						OFFSET -7.778100 -0.187103 -1.709300
						CHANNELS 3 Xrotation Yrotation Zrotation
						JOINT RightForeArm
						{
							OFFSET -22.049376 0.000000 0.000000
							CHANNELS 3 Xrotation Yrotation Zrotation
							JOINT RightHand
							{
								OFFSET -23.009392 0.000000 0.000000
								CHANNELS 3 Xrotation Yrotation Zrotation
								JOINT RightHandThumb1
								{
									OFFSET -3.507191 -2.063065 3.133727
									CHANNELS 3 Xrotation Yrotation Zrotation
									JOINT RightHandThumb2
									{
										OFFSET -3.101337 -1.790558 1.790558
										CHANNELS 3 Xrotation Yrotation Zrotation
										JOINT RightHandThumb3
										{
											OFFSET -3.058640 -1.765907 1.765906
											CHANNELS 3 Xrotation Yrotation Zrotation
											End Site
											{
												OFFSET 0.415260 3.926476 -0.049563
											}
										}
									}
								}
								JOINT RightHandIndex1
								{
									OFFSET -11.334419 -0.901459 3.706815
									CHANNELS 3 Xrotation Yrotation Zrotation
									JOINT RightHandIndex2
									{
										OFFSET -3.283112 0.000000 0.000000
										CHANNELS 3 Xrotation Yrotation Zrotation
										JOINT RightHandIndex3
										{
											OFFSET -3.323853 0.000000 0.000000
											CHANNELS 3 Xrotation Yrotation Zrotation
											End Site
											{
												OFFSET 1.135597 3.097809 0.402452
											}
										}
									}
								}
								JOINT RightHandMiddle1
								{
									OFFSET -11.335861 0.000000 0.000000
									CHANNELS 3 Xrotation Yrotation Zrotation
									JOINT RightHandMiddle2
									{
										OFFSET -3.410492 0.000000 0.000000
										CHANNELS 3 Xrotation Yrotation Zrotation
										JOINT RightHandMiddle3
										{
											OFFSET -3.312172 0.000000 0.000000
											CHANNELS 3 Xrotation Yrotation Zrotation
											End Site
											{
												OFFSET 1.150200 3.080154 0.400270
											}
										}
									}
								}
								JOINT RightHandRing1
								{
									OFFSET -11.514786 -0.013176 -3.003090
									CHANNELS 3 Xrotation Yrotation Zrotation
									JOINT RightHandRing2
									{
										OFFSET -3.053307 0.000000 0.000000
										CHANNELS 3 Xrotation Yrotation Zrotation
										JOINT RightHandRing3
										{
											OFFSET -3.295807 0.000000 0.000000
											CHANNELS 3 Xrotation Yrotation Zrotation
											End Site
											{
												OFFSET 1.281006 3.013344 0.375733
											}
										}
									}
								}
								JOINT RightHandPinky1
								{
									OFFSET -10.518692 -0.960396 -5.730441
									CHANNELS 3 Xrotation Yrotation Zrotation
									JOINT RightHandPinky2
									{
										OFFSET -2.861649 0.000000 0.000000
										CHANNELS 3 Xrotation Yrotation Zrotation
										JOINT RightHandPinky3
										{
											OFFSET -2.863380 0.000000 0.000000
											CHANNELS 3 Xrotation Yrotation Zrotation
											End Site
											{
												OFFSET 0.843597 2.711159 0.369971
											}
										}
									}
								}
							}
							JOINT RSleeve
							{
								OFFSET -6.676277 -0.344902 -1.011730
								CHANNELS 3 Xrotation Yrotation Zrotation
								End Site
								{
									OFFSET 0.000000 14.885353 0.000000
								}
							}
						}
					}
				}
				JOINT Backpack
				{
					OFFSET 0.000000 -2.471497 36.677502
					CHANNELS 3 Xrotation Yrotation Zrotation
					End Site
					{
						OFFSET 0.000000 20.427315 0.000000
					}
				}
				JOINT Hood
				{
					OFFSET 0.000000 18.754097 -10.431000
					CHANNELS 3 Xrotation Yrotation Zrotation
					JOINT Hood1
					{
						OFFSET 0.000000 -5.011002 -7.685901
						CHANNELS 3 Xrotation Yrotation Zrotation
						End Site
						{
							OFFSET 0.000000 9.175140 0.000000
						}
					}
				}
				JOINT LHoodieString
				{
					OFFSET 5.250500 16.397697 3.089900
					CHANNELS 3 Xrotation Yrotation Zrotation
					JOINT LHoodieString1
					{
						OFFSET 0.257700 -6.364304 3.694600
						CHANNELS 3 Xrotation Yrotation Zrotation
						JOINT LHoodieString2
						{
							OFFSET 0.000000 -9.643799 2.679100
							CHANNELS 3 Xrotation Yrotation Zrotation
							End Site
							{
								OFFSET 0.000000 10.009018 0.000000
							}
						}
					}
				}
				JOINT RHoodieString
				{
					OFFSET -5.250500 16.397697 3.089900
					CHANNELS 3 Xrotation Yrotation Zrotation
					JOINT RHoodieString1
					{
						OFFSET -0.257700 -6.364304 3.694600
						CHANNELS 3 Xrotation Yrotation Zrotation
						JOINT RHoodieString2
						{
							OFFSET 0.000000 -9.643799 2.679100
							CHANNELS 3 Xrotation Yrotation Zrotation
							End Site
							{
								OFFSET 0.000000 10.009018 0.000000
							}
						}
					}
				}
			}
			JOINT LBackpack_Strap
			{
				OFFSET 15.223200 -7.719803 -6.610900
				CHANNELS 3 Xrotation Yrotation Zrotation
				End Site
				{
					OFFSET 0.000000 16.040596 0.000000
				}
			}
			JOINT RBackpack_Strap
			{
				OFFSET -15.223000 -7.719803 -6.610900
				CHANNELS 3 Xrotation Yrotation Zrotation
				End Site
				{
					OFFSET 0.000000 16.040596 0.000000
				}
			}
		}
	}
	JOINT BoyFacialAnim_Joint
	{
		OFFSET 1.000000 -82.208099 -1.550900
		CHANNELS 3 Xrotation Yrotation Zrotation
		End Site
		{
			OFFSET 0.000000 30.012791 0.000000
		}
	}
}
MOTION
Frames: 4
Frame Time: 0.016667
-2.201010 76.100235 -9.385141 15.831603 -4.114144 -0.469346 -0.000000 0.000000 -0.000000 -39.112836 10.120556 -3.284900 46.795938 10.115908 -9.719969 -26.415067 29.668839 11.884880 -0.000000 0.000000 0.000000 -0.000000 0.000000 -0.000000 -0.000001 0.000000 0.000001 2.695754 -6.705790 6.470733 14.091292 -10.732876 0.475657 -24.573484 -16.308572 0.455289 0.000000 0.000002 -0.000000 0.000000 0.000002 -0.000000 -0.000002 0.000002 -0.000002 0.361459 0.794821 -1.398772 0.636432 1.821084 -2.318890 0.638264 1.823742 -2.316336 -1.472512 0.099772 3.009347 -0.377467 5.512137 -4.336851 0.000002 -0.000000 0.000000 0.000002 -0.000000 0.000000 0.000002 -0.000000 0.000000 0.360188 2.455132 -3.076565 -42.779705 -18.686486 -73.901165 -0.000020 -32.101513 -0.000032 32.955635 -38.789211 21.774180 -1.540050 3.690178 6.142357 3.939067 7.948692 0.746810 -0.000002 0.000001 -0.000002 -0.000003 -0.000001 0.000002 0.000002 0.000016 -0.000041 -0.000003 0.000001 -0.000004 -0.000000 -0.001925 0.015985 0.000002 0.001933 -0.015975 0.000001 -0.000001 -0.000002 -0.000009 0.000000 0.000010 0.000004 -0.000007 -0.000003 -0.000003 -0.000000 0.000005 -0.018091 4.054245 0.511064 -0.018085 -4.054241 -0.511050 0.000002 -0.000001 0.000001 0.000000 -0.000001 0.000000 -0.359832 -8.426898 9.978025 -7.597807 0.652491 60.625456 0.000047 73.807810 -0.000060 34.281150 -23.697054 38.665151 -1.849253 -3.581786 -6.586142 4.637208 -8.634137 -0.225405 -0.000002 0.000001 0.000003 -0.000002 0.000003 0.000002 -0.000003 -0.000012 -0.000016 0.000001 0.000000 0.000002 -0.000002 -0.000009 -0.000006 -0.000008 0.000008 0.000015 -0.000004 -0.000001 0.000001 0.000002 0.000002 0.000009 -0.000001 -0.000008 -0.000006 0.000002 0.000003 -0.000001 -0.000002 -0.000014 -0.000021 -0.000003 0.000009 0.000011 -0.000000 -0.000001 -0.000003 -0.000001 0.000000 -0.000001 -0.000000 0.000000 0.000001 -0.000000 0.000000 0.000001 -0.000000 0.000000 0.000001 -0.000000 0.000000 0.000001 -0.000000 0.000000 0.000000 -0.000000 0.000000 0.000000 -0.000000 0.000000 0.000001 -0.000000 0.000000 0.000000 -0.000000 0.000000 0.000000 0.000000 0.000000 -0.000000 0.000000 0.000000 -0.000000 -0.000000 0.000000 -0.000000 
-2.186369 75.607803 -9.742346 15.948108 -6.935934 -0.409024 0.000001 -0.000000 0.000000 -39.464498 11.085117 -2.066478 47.838570 10.670694 -9.660189 -29.174432 29.014172 12.311766 -0.000000 -0.000003 0.000000 -0.000000 -0.000003 0.000000 0.000003 -0.000001 -0.000001 2.841415 -6.100374 6.393368 13.623026 -10.553259 -0.510740 -26.282042 -13.827065 1.799335 0.000001 0.000003 0.000000 0.000001 0.000003 0.000000 -0.000000 0.000001 -0.000001 0.470961 1.031750 -1.339328 0.887024 2.339013 -2.487203 0.888434 2.341321 -2.484546 -1.837072 0.243476 3.123045 -2.094609 6.419597 -4.540644 0.000001 -0.000000 0.000000 0.000001 -0.000000 0.000000 0.000001 -0.000000 0.000000 0.374451 2.421726 -3.265747 -39.851213 -14.727742 -72.049692 0.000000 -22.743459 -0.000002 32.115228 -41.481344 24.235939 -1.540052 3.690172 6.142343 3.939067 7.948692 0.746808 -0.000002 0.000001 -0.000000 -0.000001 -0.000010 -0.000005 -0.000000 0.000016 -0.000043 -0.000000 0.000000 -0.000000 0.000001 -0.001935 0.015978 -0.000002 0.001933 -0.015977 0.000004 -0.000000 -0.000002 -0.000002 0.000005 0.000002 0.000006 -0.000008 -0.000007 -0.000004 -0.000003 0.000003 -0.018092 4.054254 0.511072 -0.018088 -4.054243 -0.511050 0.000001 -0.000001 0.000003 0.000000 -0.000001 0.000000 -0.352594 -8.501479 9.730644 -12.738345 4.865300 63.264067 -0.000074 74.618369 0.000069 16.032875 -23.458645 18.092932 -1.849248 -3.581790 -6.586154 4.637207 -8.634142 -0.225406 -0.000002 0.000000 0.000000 -0.000007 0.000004 0.000004 -0.000001 -0.000013 -0.000020 0.000001 0.000001 0.000002 0.000003 0.000000 -0.000012 -0.000001 0.000005 0.000018 0.000001 0.000001 0.000004 0.000003 0.000002 -0.000017 0.000000 -0.000011 -0.000010 0.000000 0.000003 0.000001 0.000005 -0.000008 -0.000022 0.000004 0.000013 0.000011 0.000001 -0.000001 0.000002 -0.000000 0.000000 0.000001 0.000000 0.000000 0.000000 0.000000 0.000000 0.000000 0.000000 0.000000 0.000000 0.000000 0.000000 0.000000 0.000000 0.000000 0.000000 -0.000002 -0.000000 0.000000 0.000000 0.000000 0.000000 0.000000 0.000000 0.000000 -0.000002 -0.000000 0.000000 -0.000001 -0.000000 -0.000000 -0.000001 -0.000000 -0.000000 0.000001 -0.000000 0.000000 
-2.051133 75.552612 -9.923021 16.141298 -9.616044 -0.571806 -0.000001 -0.000000 -0.000000 -39.619428 11.820838 -0.821859 47.931208 10.976992 -9.617310 -30.254975 28.672683 12.487645 -0.000000 -0.000001 -0.000000 -0.000000 -0.000001 0.000000 0.000001 0.000000 -0.000002 2.132378 -5.661938 5.938072 14.066259 -10.522085 -1.257655 -25.748302 -11.026647 4.625705 0.000001 -0.000004 0.000000 0.000001 -0.000004 0.000000 0.000001 0.000003 0.000000 0.559549 1.240828 -1.307564 1.073566 2.781568 -2.534680 1.074969 2.783871 -2.531567 -2.112479 0.371917 3.318560 -3.583593 7.337828 -4.619422 -0.000001 0.000000 0.000000 -0.000001 0.000000 0.000000 -0.000001 0.000000 0.000000 0.401730 2.230152 -3.311586 -35.619177 -10.457013 -70.485667 0.000002 -15.000183 -0.000016 29.764779 -42.497454 25.442132 -1.546120 3.447766 6.213082 3.939073 7.948692 0.746807 0.000002 0.000001 -0.000001 0.000021 -0.012614 0.104593 0.000002 0.000015 -0.000043 0.000000 0.000000 -0.000000 0.000021 -0.014535 0.120557 -0.000003 0.001933 -0.015975 -0.000002 -0.000001 -0.000000 0.000022 -0.012618 0.104589 0.000003 -0.000007 -0.000005 0.000000 -0.000003 -0.000001 -0.025473 4.041604 0.615903 -0.018090 -4.054242 -0.511054 0.000003 0.000002 -0.000000 0.000000 -0.000004 0.000000 -0.356440 -8.608836 9.558903 -16.313086 8.187864 64.953555 -0.000024 75.469041 0.000042 5.685429 -18.653460 6.996145 -1.849259 -3.581799 -6.586130 4.637207 -8.634139 -0.225406 0.000001 -0.000002 0.000001 -0.000009 -0.000008 -0.000004 -0.000003 -0.000016 -0.000020 -0.000001 -0.000002 -0.000000 -0.000002 -0.000007 -0.000013 0.000000 0.000007 0.000015 0.000000 0.000004 0.000002 -0.000006 0.000006 -0.000007 -0.000003 -0.000006 -0.000011 -0.000001 -0.000003 0.000003 0.000000 0.000002 -0.000003 0.000003 0.000008 0.000008 0.000001 0.000001 -0.000001 -0.000000 0.000001 -0.000000 0.000001 -0.000000 -0.000000 0.000001 -0.000000 -0.000000 0.000001 -0.000000 -0.000000 0.000001 -0.000000 -0.000000 0.000001 -0.000000 -0.000000 0.000001 -0.000000 -0.000000 0.000001 -0.000000 -0.000000 0.000001 -0.000000 -0.000000 0.000001 -0.000000 -0.000000 0.000001 0.000000 -0.000000 0.000001 0.000000 -0.000000 -0.000001 -0.000000 -0.000000 
-1.821363 75.964966 -9.929110 16.345245 -11.903223 -0.813430 0.000001 0.000000 -0.000000 -39.422390 12.109631 0.154205 46.971826 11.058683 -9.588773 -29.512178 28.593421 12.386878 0.000000 0.000003 -0.000000 0.000000 0.000003 -0.000000 -0.000000 0.000000 -0.000000 0.936334 -5.441220 5.143290 14.765424 -10.597364 -1.669767 -23.044408 -7.939364 8.050162 -0.000000 0.000001 -0.000000 -0.000000 0.000001 -0.000000 -0.000002 0.000000 -0.000000 0.637711 1.391768 -1.443627 1.197264 3.115615 -2.517047 1.200313 3.118347 -2.512250 -2.270869 0.460011 3.641768 -4.724757 8.186669 -4.521797 -0.000000 -0.000000 -0.000000 -0.000000 -0.000000 -0.000000 -0.000000 -0.000000 -0.000000 0.438879 1.963088 -3.304549 -30.625096 -5.983799 -69.424536 -0.000003 -8.498761 -0.000014 26.865934 -42.479306 25.958814 -1.548701 3.336550 6.245474 3.939069 7.948693 0.746805 0.000000 0.000001 -0.000001 0.000008 -0.018407 0.152526 0.000003 0.000017 -0.000043 -0.000002 0.000002 0.000000 0.000020 -0.020338 0.168521 -0.000000 0.001936 -0.015980 -0.000000 -0.000000 -0.000003 0.000012 -0.018418 0.152530 0.000007 -0.000007 -0.000010 -0.000004 -0.000001 -0.000000 -0.028877 4.035792 0.663976 -0.018089 -4.054239 -0.511053 -0.000002 0.000002 0.000002 -0.000000 0.000001 0.000001 -0.371556 -8.742235 9.454222 -18.557115 10.858338 65.882748 0.000010 76.259663 0.000001 0.738461 -13.475855 2.340498 -1.849256 -3.581783 -6.586130 4.637205 -8.634141 -0.225407 -0.000000 -0.000000 0.000001 0.000003 -0.000003 -0.000008 -0.000007 -0.000013 -0.000020 -0.000001 -0.000003 -0.000000 0.000002 -0.000008 -0.000011 -0.000001 0.000009 0.000017 0.000001 0.000001 -0.000002 0.000007 0.000003 -0.000012 -0.000000 -0.000006 -0.000013 -0.000001 -0.000001 0.000002 -0.000001 -0.000002 -0.000005 0.000002 0.000008 0.000005 0.000000 0.000003 -0.000001 -0.000002 0.000001 0.000000 0.000001 0.000000 -0.000001 0.000001 0.000000 -0.000001 0.000001 0.000000 -0.000001 0.000001 0.000000 -0.000001 0.000001 0.000000 -0.000000 -0.000001 -0.000000 -0.000000 0.000001 0.000000 -0.000001 0.000001 0.000000 -0.000000 -0.000001 -0.000000 -0.000000 -0.000001 0.000001 0.000000 -0.000001 0.000001 0.000000 0.000001 0.000000 -0.000000 
